<?xml version="1.0" encoding="UTF-8" standalone="no"?>
<svg
   version="1.1"
   id="Layer_1"
   x="0px"
   y="0px"
   viewBox="0 0 63.999999 64.000001"
   xml:space="preserve"
   sodipodi:docname="copy.svg"
   width="64"
   height="64"
   inkscape:version="1.4.2 (ebf0e940d0, 2025-05-08)"
   xmlns:inkscape="http://www.inkscape.org/namespaces/inkscape"
   xmlns:sodipodi="http://sodipodi.sourceforge.net/DTD/sodipodi-0.dtd"
   xmlns="http://www.w3.org/2000/svg"
   xmlns:svg="http://www.w3.org/2000/svg"><defs
     id="defs1" /><sodipodi:namedview
     id="namedview1"
     pagecolor="#ffffff"
     bordercolor="#000000"
     borderopacity="0.25"
     inkscape:showpageshadow="2"
     inkscape:pageopacity="0.0"
     inkscape:pagecheckerboard="0"
     inkscape:deskcolor="#d1d1d1"
     inkscape:zoom="4.6208232"
     inkscape:cx="59.621412"
     inkscape:cy="38.629481"
     inkscape:window-width="1920"
     inkscape:window-height="1016"
     inkscape:window-x="1920"
     inkscape:window-y="0"
     inkscape:window-maximized="1"
     inkscape:current-layer="Layer_1" /><rect
     style="fill:#ffffff;stroke:none;stroke-width:3.1;stroke-linecap:round;stroke-linejoin:round;paint-order:markers fill stroke"
     id="rect2"
     width="45.463543"
     height="51.265625"
     x="14.369792"
     y="11.59375"
     ry="2.3113325" /><rect
     style="fill:#ffffff;stroke:none;stroke-width:3.1;stroke-linecap:round;stroke-linejoin:round;paint-order:markers fill stroke"
     id="rect1"
     width="46.348957"
     height="51.640625"
     x="4.166667"
     y="1.1406252"
     ry="2.3113325" /><path
     d="m 14.369792,32.708333 c -0.838542,0 -1.515625,-0.744791 -1.515625,-1.661458 0,-0.916667 0.677083,-1.661458 1.515625,-1.661458 H 27.34375 c 0.838542,0 1.515625,0.744791 1.515625,1.661458 0,0.916667 -0.677083,1.661458 -1.515625,1.661458 z M 51.65625,10.072917 h 5.432292 c 1.067708,0 2.041666,0.4375 2.744791,1.140625 0.703125,0.703125 1.140625,1.677083 1.140625,2.744791 v 46.15625 c 0,1.072917 -0.4375,2.041667 -1.140625,2.744792 C 59.130208,63.5625 58.15625,64 57.088542,64 H 16.229167 C 15.161458,64 14.1875,63.5625 13.484375,62.859375 12.78125,62.15625 12.34375,61.1875 12.34375,60.114583 v -6.1875 H 6.9114585 c -1.0677083,0 -2.0416666,-0.4375 -2.7447916,-1.140625 -0.703125,-0.703125 -1.140625,-1.677083 -1.140625,-2.744791 V 3.8854168 c 0,-1.0729166 0.4375,-2.0416666 1.140625,-2.7447916 C 4.8697919,0.4375002 5.8385419,2.048e-7 6.9114585,2.048e-7 H 47.770833 c 1.067709,0 2.041667,0.4374999952 2.744792,1.1406249952 0.703125,0.703125 1.140625,1.6770833 1.140625,2.7447916 z M 15.671875,53.927083 v 6.1875 c 0,0.151042 0.0625,0.291667 0.166667,0.390625 0.104166,0.104167 0.239583,0.166667 0.390625,0.166667 h 40.859375 c 0.151041,0 0.291666,-0.0625 0.390625,-0.166667 0.104166,-0.104167 0.166666,-0.239583 0.166666,-0.390625 v -46.15625 c 0,-0.151041 -0.0625,-0.291666 -0.166666,-0.390625 C 57.375,13.463542 57.239583,13.401042 57.088542,13.401042 H 51.65625 v 36.635416 c 0,1.067709 -0.4375,2.041667 -1.140625,2.744792 -0.703125,0.703125 -1.677083,1.140625 -2.744792,1.140625 H 15.671875 Z M 47.770833,3.3281252 H 6.9114585 c -0.1510416,0 -0.2916666,0.0625 -0.390625,0.1666666 C 6.4166669,3.5989585 6.3541669,3.7343752 6.3541669,3.8854168 V 50.041667 c 0,0.151041 0.0625,0.291666 0.1666666,0.390625 0.1041667,0.104166 0.2395834,0.166666 0.390625,0.166666 H 47.770833 c 0.151042,0 0.291667,-0.0625 0.390625,-0.166666 0.104167,-0.104167 0.166667,-0.239584 0.166667,-0.390625 V 3.8854168 c 0,-0.1510416 -0.0625,-0.2916666 -0.166667,-0.390625 C 48.0625,3.3906252 47.921875,3.3281252 47.770833,3.3281252 Z M 14.369792,14.916667 c -0.838542,0 -1.515625,-0.744792 -1.515625,-1.661459 0,-0.916666 0.677083,-1.661458 1.515625,-1.661458 H 40.3125 c 0.838542,0 1.515625,0.744792 1.515625,1.661458 0,0.916667 -0.677083,1.661459 -1.515625,1.661459 z m 0,8.895833 c -0.838542,0 -1.515625,-0.744792 -1.515625,-1.661458 0,-0.916667 0.677083,-1.661459 1.515625,-1.661459 H 40.3125 c 0.838542,0 1.515625,0.744792 1.515625,1.661459 0,0.916666 -0.677083,1.661458 -1.515625,1.661458 z"
     id="path1"
     style="stroke-width:1;fill:#3771c8" /></svg>
