<?xml version="1.0" encoding="UTF-8" standalone="no"?>
<svg
   shape-rendering="geometricPrecision"
   text-rendering="geometricPrecision"
   image-rendering="optimizeQuality"
   fill-rule="evenodd"
   clip-rule="evenodd"
   viewBox="0 0 64 64.000001"
   version="1.1"
   id="svg1"
   sodipodi:docname="fav-add.svg"
   width="64"
   height="64"
   inkscape:version="1.4.2 (ebf0e940d0, 2025-05-08)"
   xmlns:inkscape="http://www.inkscape.org/namespaces/inkscape"
   xmlns:sodipodi="http://sodipodi.sourceforge.net/DTD/sodipodi-0.dtd"
   xmlns:xlink="http://www.w3.org/1999/xlink"
   xmlns="http://www.w3.org/2000/svg"
   xmlns:svg="http://www.w3.org/2000/svg">
  <defs
     id="defs1">
    <linearGradient
       id="linearGradient1"
       inkscape:collect="always">
      <stop
         style="stop-color:#162d50;stop-opacity:1"
         offset="0"
         id="stop1" />
      <stop
         style="stop-color:#87aade;stop-opacity:1"
         offset="0.22525924"
         id="stop3" />
      <stop
         style="stop-color:#162d50;stop-opacity:1"
         offset="1"
         id="stop2" />
    </linearGradient>
    <linearGradient
       inkscape:collect="always"
       xlink:href="#linearGradient1"
       id="linearGradient2"
       x1="-2.8150532"
       y1="31.19079"
       x2="75.668633"
       y2="30.852983"
       gradientUnits="userSpaceOnUse" />
  </defs>
  <sodipodi:namedview
     id="namedview1"
     pagecolor="#ffffff"
     bordercolor="#000000"
     borderopacity="0.25"
     inkscape:showpageshadow="2"
     inkscape:pageopacity="0.0"
     inkscape:pagecheckerboard="0"
     inkscape:deskcolor="#d1d1d1"
     inkscape:zoom="8.8808267"
     inkscape:cx="31.922704"
     inkscape:cy="41.493885"
     inkscape:window-width="1920"
     inkscape:window-height="1016"
     inkscape:window-x="1920"
     inkscape:window-y="0"
     inkscape:window-maximized="1"
     inkscape:current-layer="svg1" />
  <path
     id="path9"
     style="fill-opacity:1;fill:url(#linearGradient2)"
     d="M 15.136719 0 C 13.533873 0 12.073172 0.65589249 11.005859 1.7207031 C 9.9460546 2.78176 9.2890625 4.2435583 9.2890625 5.8476562 L 9.2949219 62.941406 A 1.0526736 1.0526736 0 0 0 9.5175781 63.591797 C 9.8741834 64.049753 10.538138 64.129341 10.996094 63.771484 L 31.990234 47.421875 L 52.974609 63.753906 C 53.158542 63.907811 53.395838 64 53.652344 64 C 54.236676 64 54.710938 63.525738 54.710938 62.941406 L 54.710938 7.4453125 C 54.710938 5.4020271 53.870877 3.5400974 52.519531 2.1875 C 51.170687 0.83990763 49.310162 0 47.265625 0 L 15.136719 0 z M 32 7.7617188 C 35.896381 7.7617188 39.429482 9.3447954 41.988281 11.902344 C 44.545829 14.457389 46.126953 17.988536 46.126953 21.888672 C 46.126953 25.788807 44.544578 29.322609 41.988281 31.878906 C 39.431985 34.435202 35.900135 36.017578 32 36.017578 C 28.098614 36.017578 24.568016 34.435202 22.011719 31.878906 C 19.455423 29.318856 17.873047 25.785053 17.873047 21.888672 C 17.873047 17.993541 19.454172 14.461845 22.011719 11.904297 C 24.573021 9.3429956 28.103619 7.7617187 32 7.7617188 z M 31.998047 14.632812 C 31.153455 14.632812 30.46875 15.315565 30.46875 16.160156 L 30.46875 20.359375 L 26.271484 20.359375 C 25.426893 20.359375 24.742188 21.04408 24.742188 21.888672 C 24.742189 22.734514 25.426893 23.419922 26.271484 23.419922 L 30.46875 23.419922 L 30.46875 27.617188 C 30.46875 28.461779 31.153455 29.148437 31.998047 29.148438 C 32.843889 29.148436 33.529297 28.461779 33.529297 27.617188 L 33.529297 23.419922 L 37.728516 23.419922 C 38.573107 23.419922 39.257812 22.734514 39.257812 21.888672 C 39.257812 21.04408 38.573107 20.359375 37.728516 20.359375 L 33.529297 20.359375 L 33.529297 16.160156 C 33.529297 15.315565 32.843889 14.632813 31.998047 14.632812 z " />
</svg>
