<?xml version="1.0" encoding="UTF-8" standalone="no"?>
<svg
   version="1.1"
   id="Layer_1"
   x="0px"
   y="0px"
   viewBox="0 0 64 64.000001"
   xml:space="preserve"
   sodipodi:docname="macros.svg"
   width="64"
   height="64"
   inkscape:version="1.4.2 (ebf0e940d0, 2025-05-08)"
   xmlns:inkscape="http://www.inkscape.org/namespaces/inkscape"
   xmlns:sodipodi="http://sodipodi.sourceforge.net/DTD/sodipodi-0.dtd"
   xmlns="http://www.w3.org/2000/svg"
   xmlns:svg="http://www.w3.org/2000/svg"><defs
     id="defs8" /><sodipodi:namedview
     id="namedview8"
     pagecolor="#ffffff"
     bordercolor="#000000"
     borderopacity="0.25"
     inkscape:showpageshadow="2"
     inkscape:pageopacity="0.0"
     inkscape:pagecheckerboard="0"
     inkscape:deskcolor="#d1d1d1"
     inkscape:zoom="2.3104116"
     inkscape:cx="28.999162"
     inkscape:cy="85.04978"
     inkscape:window-width="1920"
     inkscape:window-height="1016"
     inkscape:window-x="1920"
     inkscape:window-y="0"
     inkscape:window-maximized="1"
     inkscape:current-layer="Layer_1" /><style
     type="text/css"
     id="style1">.st0{clip-path:url(#SVGID_2_);} .st1{clip-path:url(#SVGID_6_);}</style><g
     id="g11"
     transform="matrix(1.1333351,0,0,1.1333351,-3.7014634,-3.6210109)"
     style="stroke-width:0.882352"><path
       style="fill:#fee46a;stroke-width:0.882352"
       d="m 29.318408,58.664687 c 0.138398,-0.0558 0.364867,-0.0558 0.503265,0 0.138398,0.0558 0.02516,0.10153 -0.251633,0.10153 -0.276795,0 -0.39003,-0.0457 -0.251632,-0.10153 z m 3.727991,-0.006 c 0.195864,-0.051 0.467627,-0.0477 0.603917,0.007 0.136291,0.0551 -0.02396,0.0969 -0.356116,0.0928 -0.332155,-0.004 -0.443665,-0.0492 -0.247801,-0.10026 z m 1.71985,-0.19931 c 0.145318,-0.0582 0.318944,-0.051 0.385837,0.0159 0.06689,0.0669 -0.052,0.11447 -0.264214,0.10573 -0.23451,-0.01 -0.282211,-0.0574 -0.121623,-0.12162 z m -14.777366,-3.33502 -0.383485,-0.45293 0.452938,0.38348 c 0.42565,0.36038 0.544581,0.52239 0.383485,0.52239 -0.0382,0 -0.242021,-0.20382 -0.452938,-0.45294 z m 22.464736,0.37694 c 0,-0.0418 0.158528,-0.20033 0.352285,-0.35229 0.319283,-0.2504 0.326403,-0.24328 0.076,0.076 -0.26298,0.33532 -0.428289,0.44196 -0.428289,0.27628 z m -3.975792,-1.06929 c 0.193757,-0.0506 0.510814,-0.0506 0.704571,0 0.193757,0.0506 0.03523,0.0921 -0.352286,0.0921 -0.387513,0 -0.546042,-0.0414 -0.352285,-0.0921 z m -19.375694,-0.46515 c -0.118509,-0.22144 -0.170178,-0.40262 -0.114818,-0.40262 0.05536,0 0.197615,0.18118 0.316124,0.40262 0.118509,0.22143 0.170177,0.40261 0.114818,0.40261 -0.05536,0 -0.197615,-0.18118 -0.316124,-0.40261 z m -0.588025,-1.52657 c 0.0097,-0.23451 0.05736,-0.28222 0.121622,-0.12163 0.05815,0.14532 0.051,0.31895 -0.01589,0.38584 -0.06689,0.0669 -0.11447,-0.052 -0.105729,-0.26421 z m 25.767157,-0.20131 c 0.0097,-0.23451 0.05736,-0.28221 0.121622,-0.12162 0.05815,0.14531 0.051,0.31894 -0.01589,0.38583 -0.06689,0.0669 -0.11447,-0.052 -0.105729,-0.26421 z m -8.036344,-0.28518 c 0,-0.2768 0.04569,-0.39003 0.101536,-0.25164 0.05584,0.1384 0.05584,0.36487 0,0.50327 -0.05585,0.1384 -0.101536,0.0252 -0.101536,-0.25163 z M 18.3817,51.481787 c -0.06651,-0.17332 -0.08942,-3.42183 -0.05091,-7.2189 l 0.07001,-6.90377 0.583209,-1.26651 c 0.388706,-0.84413 0.939655,-1.59229 1.652005,-2.24334 1.843676,-1.68501 1.841604,-1.68468 11.148386,-1.813 l 8.15289,-0.11241 1.320919,-0.62594 c 1.694388,-0.8029 3.185941,-2.2925 4.048464,-4.04316 l 0.669794,-1.35947 0.100653,-3.93077 0.100653,-3.93077 3.019589,0.0103 c 1.861106,0.006 3.303112,0.10684 3.758593,0.262 1.739909,0.59269 3.147803,2.1359 3.966707,4.34795 0.52253,1.41147 0.703461,2.09249 0.464067,1.74673 -0.148643,-0.21468 -4.352382,2.69472 -18.885616,13.07073 -10.281928,7.34078 -18.987832,13.56707 -19.346453,13.83619 -0.556206,0.41739 -0.669812,0.44299 -0.772965,0.17418 z m 22.033182,-1.28961 c -0.250398,-0.31928 -0.243278,-0.3264 0.076,-0.076 0.193757,0.15195 0.352286,0.31048 0.352286,0.35228 0,0.16568 -0.16531,0.059 -0.42829,-0.27628 z M 34.6658,46.166337 c 1.861563,-0.0333 4.850955,-0.0332 6.643095,1.4e-4 1.79214,0.0333 0.269043,0.0605 -3.384659,0.0605 -3.653702,-7e-5 -5.119999,-0.0273 -3.258436,-0.0606 z m 17.412758,-1.79857 c 0.145318,-0.0582 0.318944,-0.051 0.385836,0.0159 0.06689,0.0669 -0.052,0.11447 -0.264214,0.10572 -0.23451,-0.01 -0.28221,-0.0574 -0.121622,-0.12162 z m 6.324932,-11.13561 c 0,-0.38752 0.04143,-0.54605 0.09206,-0.35229 0.05063,0.19376 0.05063,0.51082 0,0.70457 -0.05063,0.19376 -0.09206,0.0352 -0.09206,-0.35228 z m 0.0081,-2.81829 c 0,-0.49823 0.03926,-0.70205 0.08724,-0.45293 0.04798,0.24911 0.04798,0.65676 0,0.90587 -0.04798,0.24912 -0.08724,0.0453 -0.08724,-0.45294 z m -0.22435,-2.01305 c 0,-0.2768 0.04569,-0.39003 0.101536,-0.25164 0.05585,0.1384 0.05585,0.36487 0,0.50327 -0.05584,0.1384 -0.101536,0.0252 -0.101536,-0.25163 z m -0.217198,-1.32527 c 0.0097,-0.23451 0.05736,-0.28221 0.121622,-0.12162 0.05815,0.14532 0.051,0.31894 -0.01589,0.38584 -0.06689,0.0669 -0.114471,-0.052 -0.10573,-0.26422 z m -0.402612,-1.81175 c 0.0097,-0.23451 0.05736,-0.28221 0.121622,-0.12162 0.05815,0.14531 0.051,0.31894 -0.01589,0.38583 -0.06689,0.0669 -0.114471,-0.052 -0.10573,-0.26421 z"
       id="path10" /><path
       style="fill:#feda4e;stroke-width:0.882352"
       d="m 30.136213,58.660487 c 0.145318,-0.0582 0.318944,-0.051 0.385837,0.0159 0.06689,0.0669 -0.052,0.11448 -0.264214,0.10573 -0.23451,-0.01 -0.282211,-0.0574 -0.121623,-0.12162 z m 2.214365,0 c 0.145318,-0.0582 0.318944,-0.051 0.385837,0.0159 0.06689,0.0669 -0.052,0.11448 -0.264214,0.10573 -0.23451,-0.01 -0.282211,-0.0574 -0.121623,-0.12162 z m -9.534796,-1.75039 c -2.318342,-1.11961 -3.75516,-2.69357 -4.194815,-4.59522 -0.121652,-0.52618 0.528287,-1.01193 19.216023,-14.36161 10.638063,-7.59936 19.388812,-13.77013 19.446108,-13.71283 0.447388,0.44738 1.416955,7.46191 1.166372,8.43835 -0.07966,0.31041 -2.621822,2.24029 -8.087474,6.13961 l -7.971295,5.68689 h -5.504454 -5.504453 v 0.90179 0.90179 l 4.170174,0.0544 4.170174,0.0544 -7.340742,5.21063 c -4.037409,2.86585 -7.526647,5.37861 -7.753865,5.58392 -0.404538,0.36555 -0.442181,0.35927 -1.811753,-0.30214 z m 32.018151,-14.01526 c 0.200397,-0.22144 0.409652,-0.40261 0.465011,-0.40261 0.05536,0 -0.06331,0.18117 -0.263705,0.40261 -0.200398,0.22144 -0.409653,0.40261 -0.465012,0.40261 -0.05536,0 0.06331,-0.18117 0.263706,-0.40261 z"
       id="path9" /><path
       style="fill:#fed33b;stroke-width:0.882352"
       d="m 29.268082,58.596827 c -1.415817,-0.16097 -3.625301,-0.6292 -4.490574,-0.95164 -0.443925,-0.16543 -0.448374,-0.18701 -0.100653,-0.48815 0.200091,-0.17329 3.697026,-2.68318 7.770966,-5.57754 l 7.407165,-5.26246 h 2.305846 2.305846 v 2.50642 c 0,3.03362 -0.236793,4.24571 -1.07424,5.49877 -1.918347,2.8704 -8.624319,4.89989 -14.124356,4.2746 z m 10.647635,-4.33146 c 1.906157,-0.90453 1.693862,-4.00199 -0.319796,-4.66593 -2.042065,-0.6733 -3.915328,1.29981 -3.14803,3.31581 0.534346,1.40395 2.083442,2.00705 3.467826,1.35012 z m 10.361682,-15.39166 c 4.358437,-3.11427 7.976592,-5.61014 8.040344,-5.54639 0.201105,0.2011 -0.367672,3.06243 -0.951893,4.78865 -1.135259,3.3544 -2.383512,5.13934 -4.142365,5.92338 -0.686939,0.30622 -1.544503,0.36906 -5.837871,0.42781 l -5.032648,0.0689 z"
       id="path8" /><path
       style="fill:#4685b6;stroke-width:0.882352"
       d="m 11.012151,44.367767 c 0.145318,-0.0582 0.318945,-0.051 0.385837,0.0159 0.06689,0.0669 -0.052,0.11447 -0.264214,0.10572 -0.23451,-0.01 -0.282211,-0.0574 -0.121623,-0.12162 z m -3.2964655,-1.72456 -0.591254,-0.65425 0.654244,0.59126 c 0.359835,0.32519 0.654244,0.6196 0.654244,0.65424 0,0.15552 -0.166103,0.0186 -0.717234,-0.59125 z m 9.0100205,-4.88167 c 0.0041,-0.33215 0.04922,-0.44367 0.100259,-0.2478 0.05104,0.19586 0.04768,0.46763 -0.0075,0.60392 -0.05514,0.13629 -0.0969,-0.024 -0.0928,-0.35612 z M 5.2279175,37.543457 c 0.0097,-0.23451 0.05736,-0.28221 0.121623,-0.12162 0.05815,0.14531 0.051,0.31894 -0.01589,0.38583 -0.06689,0.0669 -0.114471,-0.052 -0.10573,-0.26421 z m -0.618085,-3.49675 c -0.442396,-3.60328 0.181371,-8.59101 1.404022,-11.22676 1.149629,-2.47834 3.471984,-4.25025 6.1432245,-4.68716 0.664309,-0.10865 5.256425,-0.19807 10.2047,-0.19872 l 8.996865,-10e-4 0.07706,-0.85555 0.07706,-0.85555 0.03517,0.9562 0.03517,0.9562 -5.888198,0.005 -5.888198,0.005 -7.340373,8.6374 c -4.0372045,4.75058 -7.3983675,8.80191 -7.4692505,9.00298 -0.07127,0.20217 -0.244361,-0.57503 -0.387248,-1.73882 z m 13.4857705,-0.0853 c 0,-0.0418 0.158529,-0.20033 0.352286,-0.35229 0.319282,-0.2504 0.326402,-0.24328 0.076,0.076 -0.26298,0.33532 -0.42829,0.44196 -0.42829,0.27628 z m 1.610448,-1.61045 c 0,-0.0418 0.158528,-0.20033 0.352285,-0.35229 0.319282,-0.25039 0.326403,-0.24327 0.076,0.076 -0.26298,0.33532 -0.428289,0.44196 -0.428289,0.27628 z m 19.287623,-2.07457 c 0.145317,-0.0582 0.318944,-0.051 0.385836,0.0159 0.06689,0.0669 -0.052,0.11447 -0.264214,0.10573 -0.23451,-0.01 -0.282211,-0.0574 -0.121622,-0.12162 z m 3.459945,-1.77489 c 0.260036,-0.2768 0.518086,-0.50327 0.573446,-0.50327 0.05536,0 -0.112104,0.22647 -0.37214,0.50327 -0.260036,0.27679 -0.518087,0.50326 -0.573446,0.50326 -0.05536,0 0.112104,-0.22647 0.37214,-0.50326 z m 1.827646,-3.64028 c 0.0097,-0.23451 0.05736,-0.28221 0.121622,-0.12163 0.05815,0.14532 0.051,0.31895 -0.01589,0.38584 -0.06689,0.0669 -0.11447,-0.052 -0.105729,-0.26421 z M 18.298437,14.057767 c 0.0035,-5.2202 0.542207,-6.91064 2.594347,-8.14128 1.93745,-1.16186 6.378416,-1.90687 10.934014,-1.83426 1.442643,0.023 1.920831,0.0685 1.147113,0.10912 l -1.326818,0.0697 -2.490039,2.93863 c -2.159752,2.54883 -2.517795,2.89045 -2.6993,2.57548 -0.574304,-0.99661 -1.241258,-1.5332 -2.038579,-1.64012 -1.57921,-0.21177 -2.700065,0.85136 -2.700065,2.561 0,0.6816 0.125975,0.96133 0.68444,1.51979 0.376442,0.37644 0.859576,0.68444 1.073631,0.68444 0.214056,0 0.444726,0.0555 0.512601,0.12341 0.06788,0.0679 -0.483199,0.8346 -1.224611,1.70383 l -1.34802,1.58041 -1.560121,0.007 -1.560121,0.007 z m 6.201211,-1.09372 c 0.145317,-0.0582 0.318944,-0.051 0.385836,0.0159 0.06689,0.0669 -0.052,0.11447 -0.264214,0.10573 -0.23451,-0.01 -0.282211,-0.0574 -0.121622,-0.12162 z m 1.044274,-0.3411 c 0,-0.0418 0.158529,-0.20033 0.352286,-0.35228 0.319282,-0.2504 0.326402,-0.24328 0.076,0.076 -0.26298,0.33532 -0.42829,0.44196 -0.42829,0.27628 z m 18.737343,-2.25579 c 0.0097,-0.23451 0.05736,-0.28221 0.121622,-0.12162 0.05815,0.14532 0.051,0.31894 -0.01589,0.38584 -0.06689,0.0669 -0.11447,-0.052 -0.105729,-0.26422 z m -1.838483,-3.45575 -0.693734,-0.7549 0.754897,0.69374 c 0.415194,0.38155 0.754898,0.72125 0.754898,0.75489 0,0.15372 -0.170349,0.009 -0.816061,-0.69373 z m -5.273443,-2.39801 c 0.138398,-0.0558 0.364867,-0.0558 0.503264,0 0.138398,0.0558 0.02516,0.10153 -0.251632,0.10153 -0.276796,0 -0.39003,-0.0457 -0.251632,-0.10153 z m -1.505963,-0.20749 c 0.195864,-0.051 0.467627,-0.0477 0.603917,0.007 0.136291,0.0551 -0.02396,0.0969 -0.356116,0.0928 -0.332155,-0.004 -0.443666,-0.0492 -0.247801,-0.10026 z"
       id="path7" /><path
       style="fill:#407eaf;stroke-width:0.882352"
       d="m 6.2378975,40.278207 c -0.506921,-1.17837 -1.277118,-4.13542 -1.187393,-4.55881 0.03348,-0.15797 3.367318,-4.1768 7.4085335,-8.93073 l 7.347666,-8.64352 3.396523,-0.005 c 3.152198,-0.005 3.376648,0.0188 3.120241,0.33151 -1.884642,2.29869 -19.3661895,22.72779 -19.4849705,22.77032 -0.08874,0.0318 -0.359011,-0.40171 -0.6006,-0.9633 z M 21.638179,16.075757 c 0.407926,-0.69663 2.574518,-2.97419 2.829289,-2.97419 0.986667,0 2.082984,-1.21844 2.082984,-2.31502 0,-0.37755 0.714698,-1.36764 2.56665,-3.55566 l 2.566651,-3.03241 2.516323,0.12227 c 1.383979,0.0673 2.812918,0.19075 3.175421,0.27445 l 0.659096,0.15217 -4.891774,5.73722 -4.891774,5.73722 -3.381551,0.0553 c -2.69587,0.0441 -3.351087,0.003 -3.231315,-0.20131 z"
       id="path6" /><path
       style="fill:#3a76a7;stroke-width:0.882352"
       d="m 10.637332,44.231107 c -1.2189705,-0.32876 -2.2470215,-0.98621 -3.0995825,-1.98224 -0.676933,-0.79084 -0.689048,-0.8336 -0.355752,-1.25547 0.189775,-0.2402 4.6422145,-5.48179 9.8943095,-11.64796 l 9.549265,-11.21123 h 2.478764 2.478764 v -0.90587 -0.90588 h -1.708463 -1.708464 l 4.955156,-5.81452 4.955155,-5.81452 0.7291,0.1973 c 1.140313,0.30859 2.676986,1.13172 3.422572,1.83334 0.934594,0.87948 1.892374,2.39338 1.620492,2.56142 -0.117996,0.0729 -4.219488,4.834 -9.114426,10.58016 l -8.899889,10.44758 -1.529459,0.12483 c -2.469487,0.20155 -4.480959,1.34108 -6.047562,3.42603 -1.045248,1.39109 -1.57085,3.19886 -1.57085,5.4028 v 1.76489 l -1.457028,1.73676 -1.457027,1.73676 -1.109623,-0.0136 c -0.610293,-0.007 -1.521746,-0.12474 -2.025452,-0.26059 z"
       id="path5" /><path
       style="fill:#316a9a;stroke-width:0.882352"
       d="m 14.091145,44.152997 c 0.149745,-0.19375 0.794951,-0.96891 1.43379,-1.72257 l 1.161527,-1.37028 v 1.72257 1.72257 h -1.43379 c -1.33503,0 -1.415037,-0.0243 -1.161527,-0.35229 z m 17.005741,-20.0177 c 2.955836,-3.46667 7.010841,-8.22803 9.011123,-10.5808 2.000282,-2.35276 3.70227,-4.27775 3.782195,-4.27775 0.444765,0 0.597181,2.57653 0.538233,9.09856 l -0.06241,6.90526 -0.523619,1.11637 c -0.747167,1.59298 -1.631144,2.50362 -3.162501,3.2579 l -1.336658,0.65838 -6.810304,0.0626 -6.810304,0.0626 z"
       id="path4" /></g></svg>
