<?xml version="1.0" encoding="UTF-8" standalone="no"?>
<svg
   version="1.1"
   id="Layer_1"
   x="0px"
   y="0px"
   viewBox="0 0 64.000001 64.000002"
   xml:space="preserve"
   sodipodi:docname="rename.svg"
   width="64"
   height="64"
   inkscape:version="1.4.2 (ebf0e940d0, 2025-05-08)"
   xmlns:inkscape="http://www.inkscape.org/namespaces/inkscape"
   xmlns:sodipodi="http://sodipodi.sourceforge.net/DTD/sodipodi-0.dtd"
   xmlns="http://www.w3.org/2000/svg"
   xmlns:svg="http://www.w3.org/2000/svg"><defs
     id="defs1" /><sodipodi:namedview
     id="namedview1"
     pagecolor="#ffffff"
     bordercolor="#000000"
     borderopacity="0.25"
     inkscape:showpageshadow="2"
     inkscape:pageopacity="0.0"
     inkscape:pagecheckerboard="0"
     inkscape:deskcolor="#d1d1d1"
     inkscape:zoom="7.867921"
     inkscape:cx="16.776986"
     inkscape:cy="50.521605"
     inkscape:window-width="1920"
     inkscape:window-height="1016"
     inkscape:window-x="1920"
     inkscape:window-y="0"
     inkscape:window-maximized="1"
     inkscape:current-layer="Layer_1" /><rect
     style="fill:#ffffff;stroke:none;stroke-width:2.76964;stroke-linejoin:round;paint-order:stroke fill markers"
     id="rect1"
     width="61.494781"
     height="26.572901"
     x="1.2552102"
     y="18.708342" /><path
     d="M 4.2604168,17.458333 H 39.203125 v 2.807292 H 4.2604168 c -0.4010416,0 -0.765625,0.161458 -1.0312499,0.427083 -0.2604167,0.265625 -0.4270834,0.630209 -0.4270834,1.03125 v 20.552084 c 0,0.401041 0.1614584,0.765625 0.4270834,1.03125 0.2656249,0.260416 0.6302083,0.427083 1.0312499,0.427083 H 39.203125 v 2.807292 H 4.2604168 c -1.1666666,0 -2.2343749,-0.479167 -3.0052083,-1.25 l -0.00521,-0.01563 C 0.47916687,44.505208 2.048e-7,43.442708 2.048e-7,42.270833 V 21.71875 c 0,-1.166667 0.4791666652,-2.234375 1.2499999952,-3.005208 l 0.00521,-0.0052 c 0.7708334,-0.770833 1.8385417,-1.25 3.0052083,-1.25 z M 37.380208,33.463542 c -0.791666,0 -1.432291,-0.640625 -1.432291,-1.432292 0,-0.791667 0.640625,-1.432292 1.432291,-1.432292 h 6.65625 V 14.8125 c -0.203125,-1.979167 -0.8125,-3.447917 -1.739583,-4.479167 -1.005208,-1.1249996 -2.432292,-1.7864579 -4.161458,-2.0729162 -0.776042,-0.125 -1.307292,-0.859375 -1.177084,-1.640625 0.125,-0.7760417 0.859375,-1.3072917 1.640625,-1.1770833 2.364584,0.390625 4.359375,1.3385416 5.828125,2.9895833 0.375,0.4166666 0.713542,0.8802083 1.010417,1.3854166 0.375,-0.6510416 0.822917,-1.2239583 1.333333,-1.7291666 1.53125,-1.5208333 3.583334,-2.3489583 6.036459,-2.65625 0.786458,-0.09375 1.5,0.4635417 1.59375,1.25 0.09375,0.7864583 -0.463542,1.5 -1.25,1.59375 -1.833334,0.2291666 -3.322917,0.8020833 -4.369792,1.8385412 -1.036458,1.026042 -1.692708,2.557292 -1.880208,4.708334 v 2.640625 h 12.838541 c 1.166667,0 2.234375,0.479166 3.005208,1.25 l 0.0052,0.0052 c 0.770833,0.770833 1.25,1.838542 1.25,3.005208 v 20.552084 c 0,1.166666 -0.479167,2.234375 -1.25,3.005208 l -0.0052,0.0052 c -0.770833,0.770834 -1.838541,1.25 -3.005208,1.25 H 46.901042 v 2.640625 c 0.1875,2.151042 0.84375,3.6875 1.880208,4.708333 1.041667,1.03125 2.53125,1.609375 4.369792,1.838542 0.786458,0.09375 1.34375,0.8125 1.25,1.59375 -0.09375,0.786458 -0.807292,1.34375 -1.59375,1.25 C 50.359375,58.2604 48.302083,57.432275 46.770833,55.911442 46.260417,55.40625 45.8125,54.833333 45.4375,54.182291 c -0.296875,0.505209 -0.635417,0.963542 -1.010417,1.385417 -1.473958,1.645833 -3.46875,2.598958 -5.828125,2.989583 -0.776041,0.125 -1.510416,-0.401041 -1.640625,-1.177083 -0.125,-0.776042 0.401042,-1.510417 1.177084,-1.640625 1.729166,-0.286458 3.15625,-0.942708 4.161458,-2.072917 0.927083,-1.036458 1.53125,-2.505208 1.739583,-4.479166 V 33.473958 h -6.65625 z M 46.901042,20.260417 V 30.59375 h 6.760416 c 0.791667,0 1.432292,0.640625 1.432292,1.432292 0,0.791666 -0.640625,1.432291 -1.432292,1.432291 h -6.760416 v 10.265625 h 12.838541 c 0.401042,0 0.765625,-0.161458 1.03125,-0.427083 0.260417,-0.265625 0.427083,-0.630208 0.427083,-1.03125 V 21.71875 c 0,-0.401042 -0.161458,-0.765625 -0.427083,-1.03125 -0.265625,-0.260417 -0.630208,-0.427083 -1.03125,-0.427083 z"
     id="path1"
     style="stroke-width:0.520833;fill:#3771c8" /></svg>
