<?xml version="1.0" encoding="UTF-8" standalone="no"?>
<svg
   version="1.1"
   id="Layer_1"
   x="0px"
   y="0px"
   viewBox="0 0 64.000002 64.000001"
   xml:space="preserve"
   sodipodi:docname="root.svg"
   width="64"
   height="64"
   inkscape:version="1.4.2 (ebf0e940d0, 2025-05-08)"
   xmlns:inkscape="http://www.inkscape.org/namespaces/inkscape"
   xmlns:sodipodi="http://sodipodi.sourceforge.net/DTD/sodipodi-0.dtd"
   xmlns:xlink="http://www.w3.org/1999/xlink"
   xmlns="http://www.w3.org/2000/svg"
   xmlns:svg="http://www.w3.org/2000/svg"><defs
     id="defs1"><linearGradient
       id="linearGradient1"
       inkscape:collect="always"><stop
         style="stop-color:#162d50;stop-opacity:1"
         offset="0"
         id="stop1" /><stop
         style="stop-color:#87aade;stop-opacity:1"
         offset="0.51042271"
         id="stop3" /><stop
         style="stop-color:#162d50;stop-opacity:1"
         offset="1"
         id="stop2" /></linearGradient><linearGradient
       inkscape:collect="always"
       xlink:href="#linearGradient1"
       id="linearGradient2"
       x1="108.83666"
       y1="7.6513071"
       x2="-16.526825"
       y2="23.719053"
       gradientUnits="userSpaceOnUse" /></defs><sodipodi:namedview
     id="namedview1"
     pagecolor="#ffffff"
     bordercolor="#000000"
     borderopacity="0.25"
     inkscape:showpageshadow="2"
     inkscape:pageopacity="0.0"
     inkscape:pagecheckerboard="0"
     inkscape:deskcolor="#d1d1d1"
     inkscape:zoom="4.6208232"
     inkscape:cx="41.010009"
     inkscape:cy="29.756603"
     inkscape:window-width="1920"
     inkscape:window-height="1016"
     inkscape:window-x="1920"
     inkscape:window-y="0"
     inkscape:window-maximized="1"
     inkscape:current-layer="Layer_1" /><style
     type="text/css"
     id="style1">.st0{fill-rule:evenodd;clip-rule:evenodd;}</style><path
     class="st0"
     d="m 18.362634,1.418e-7 h 26.65321 c 5.526492,0 9.427851,4.5576625582 10.042484,10.0424838582 l 4.015952,35.617482 c 0.01042,0.03125 0.01563,0.06771 0.02083,0.09897 0.307317,2.588752 0.531293,4.838936 0.604216,6.828681 0.07292,2.005371 -0.01042,3.724261 -0.328152,5.208757 -0.0052,0.02604 -0.01563,0.0573 -0.02083,0.08334 C 59.058654,61.291446 56.173002,64 52.683135,64 H 11.117253 c -3.4898678,0 -6.380728,-2.708554 -6.6672097,-6.130707 -0.010417,-0.04167 -0.015626,-0.08855 -0.015626,-0.130219 l -0.00521,-0.239603 V 57.46301 C 4.413582,56.900464 4.392747,56.280622 4.371912,55.629527 4.2885719,53.14495 4.1948142,50.269716 4.3979558,47.785139 l -0.00521,0.01042 0.046879,-0.395865 c 0.010417,-0.130219 0.026044,-0.265647 0.04167,-0.395866 L 8.3201499,10.042484 C 8.8879045,4.5472452 12.841351,1.418e-7 18.362634,1.418e-7 Z M 58.40235,53.842923 c 0,-0.385448 -0.01042,-0.786522 -0.02604,-1.198014 -0.06771,-1.797021 -0.265647,-3.870106 -0.541711,-6.2453 -0.453162,-0.177097 -0.942785,-0.270855 -1.453243,-0.270855 H 7.6586378 c -0.6406772,0 -1.244893,0.151054 -1.781395,0.4167 -0.2916904,2.031416 -0.2916904,4.552454 -0.2343941,6.943274 1.2136405,-1.729308 3.219012,-2.864817 5.4796123,-2.864817 h 41.565883 c 2.411654,0 4.536827,1.291772 5.714006,3.219012 z m -46.331895,2.333524 h 10.282087 v 3.651338 H 12.070455 Z"
     id="path1"
     style="stroke-width:0.999998;fill-opacity:1;fill:url(#linearGradient2)" /><rect
     style="vector-effect:non-scaling-stroke;fill:#5f8dd3;stroke:#000000;stroke-width:1;stroke-linecap:round;stroke-linejoin:round;-inkscape-stroke:hairline;paint-order:markers fill stroke"
     id="rect1"
     width="55.248268"
     height="13.376089"
     x="4.2760611"
     y="50.623913"
     ry="4.4377584" /><rect
     style="vector-effect:non-scaling-stroke;fill:#ffffff;stroke:none;stroke-width:1;stroke-linecap:round;stroke-linejoin:round;-inkscape-stroke:hairline;paint-order:markers fill stroke"
     id="rect3"
     width="16.403133"
     height="3.6513381"
     x="12.070455"
     y="56.176449"
     ry="1.8256691" /></svg>
