<?xml version="1.0" encoding="UTF-8" standalone="no"?>
<svg
   version="1.1"
   id="Layer_1"
   x="0px"
   y="0px"
   width="64"
   height="64"
   viewBox="0 0 63.999999 64.000001"
   enable-background="new 0 0 109.484 122.88"
   xml:space="preserve"
   sodipodi:docname="trash.svg"
   inkscape:version="1.4.2 (ebf0e940d0, 2025-05-08)"
   xmlns:inkscape="http://www.inkscape.org/namespaces/inkscape"
   xmlns:sodipodi="http://sodipodi.sourceforge.net/DTD/sodipodi-0.dtd"
   xmlns:xlink="http://www.w3.org/1999/xlink"
   xmlns="http://www.w3.org/2000/svg"
   xmlns:svg="http://www.w3.org/2000/svg"><defs
     id="defs1"><linearGradient
       id="linearGradient1"
       inkscape:collect="always"><stop
         style="stop-color:#162d50;stop-opacity:1"
         offset="0"
         id="stop1" /><stop
         style="stop-color:#afc6e9;stop-opacity:1"
         offset="0.46034214"
         id="stop3" /><stop
         style="stop-color:#162d50;stop-opacity:1"
         offset="1"
         id="stop2" /></linearGradient><linearGradient
       inkscape:collect="always"
       xlink:href="#linearGradient1"
       id="linearGradient2"
       x1="-29.907816"
       y1="59.349178"
       x2="134.91837"
       y2="59.349178"
       gradientUnits="userSpaceOnUse" /></defs><sodipodi:namedview
     id="namedview1"
     pagecolor="#ffffff"
     bordercolor="#000000"
     borderopacity="0.25"
     inkscape:showpageshadow="2"
     inkscape:pageopacity="0.0"
     inkscape:pagecheckerboard="0"
     inkscape:deskcolor="#d1d1d1"
     inkscape:zoom="6.5348308"
     inkscape:cx="36.114171"
     inkscape:cy="35.731606"
     inkscape:window-width="1920"
     inkscape:window-height="1016"
     inkscape:window-x="1920"
     inkscape:window-y="0"
     inkscape:window-maximized="1"
     inkscape:current-layer="Layer_1" /><g
     id="g1"
     transform="matrix(0.52083757,0,0,0.52083757,3.4880493,2.3597e-7)"
     style="stroke-width:1.91998"><path
       fill-rule="evenodd"
       clip-rule="evenodd"
       d="M 2.347,9.633 H 40.644 V 3.76 C 40.644,1.692 42.333,0 44.404,0 h 21.144 c 2.07,0 3.76,1.691 3.76,3.76 v 5.874 h 37.83 c 1.293,0 2.347,1.057 2.347,2.349 V 23.497 H 0 V 11.982 C 0,10.69 1.055,9.633 2.347,9.633 Z M 8.69,29.605 h 92.921 c 1.937,0 3.696,1.599 3.521,3.524 l -7.864,86.229 c -0.174,1.926 -1.59,3.521 -3.523,3.521 h -77.3 c -1.934,0 -3.352,-1.592 -3.524,-3.521 L 5.166,33.129 C 4.994,31.197 6.751,29.605 8.69,29.605 Z m 60.387,13.393 h 9.866 v 65.314 h -9.866 z m -39.005,0 h 9.867 v 65.314 h -9.867 z m 19.5,0 h 9.869 v 65.314 h -9.869 z"
       id="path1"
       style="stroke-width:1.91998;fill-opacity:1;fill:url(#linearGradient2)" /></g></svg>
